<svg width="68" height="64" viewBox="0 0 68 64" fill="none" xmlns="http://www.w3.org/2000/svg">
<mask id="mask0_8549_26362" style="mask-type:alpha" maskUnits="userSpaceOnUse" x="0" y="0" width="21" height="64">
<rect width="20.7004" height="64" fill="#10182A"/>
</mask>
<g mask="url(#mask0_8549_26362)">
<g filter="url(#filter0_f_8549_26362)">
<ellipse cx="-29.6128" cy="31.5562" rx="50.2212" ry="34.2222" fill="#9898FF" fill-opacity="0.6"/>
</g>
</g>
<mask id="mask1_8549_26362" style="mask-type:alpha" maskUnits="userSpaceOnUse" x="47" y="0" width="21" height="64">
<rect width="20.7004" height="64" transform="matrix(-1 0 0 1 67.7227 0)" fill="#10182A"/>
</mask>
<g mask="url(#mask1_8549_26362)">
<g filter="url(#filter1_f_8549_26362)">
<ellipse cx="50.2212" cy="34.2222" rx="50.2212" ry="34.2222" transform="matrix(-1 0 0 1 147.553 -2.66602)" fill="#9898FF" fill-opacity="0.6"/>
</g>
</g>
<mask id="mask2_8549_26362" style="mask-type:alpha" maskUnits="userSpaceOnUse" x="20" y="0" width="14" height="64">
<rect x="20.6113" width="13.3331" height="64" fill="#10182A"/>
</mask>
<g mask="url(#mask2_8549_26362)">
<g filter="url(#filter2_f_8549_26362)">
<ellipse cx="0.447865" cy="32" rx="33.3326" ry="32" fill="#9898FF" fill-opacity="0.6"/>
</g>
</g>
<mask id="mask3_8549_26362" style="mask-type:alpha" maskUnits="userSpaceOnUse" x="33" y="0" width="15" height="64">
<rect width="13.3331" height="64" transform="matrix(-1 0 0 1 47.1113 0)" fill="#10182A"/>
</mask>
<g mask="url(#mask3_8549_26362)">
<g filter="url(#filter3_f_8549_26362)">
<ellipse cx="33.3326" cy="32" rx="33.3326" ry="32" transform="matrix(-1 0 0 1 100.443 0)" fill="#9898FF" fill-opacity="0.6"/>
</g>
</g>
<defs>
<filter id="filter0_f_8549_26362" x="-89.834" y="-12.666" width="120.441" height="88.4445" filterUnits="userSpaceOnUse" color-interpolation-filters="sRGB">
<feFlood flood-opacity="0" result="BackgroundImageFix"/>
<feBlend mode="normal" in="SourceGraphic" in2="BackgroundImageFix" result="shape"/>
<feGaussianBlur stdDeviation="5" result="effect1_foregroundBlur_8549_26362"/>
</filter>
<filter id="filter1_f_8549_26362" x="37.1113" y="-12.666" width="120.441" height="88.4445" filterUnits="userSpaceOnUse" color-interpolation-filters="sRGB">
<feFlood flood-opacity="0" result="BackgroundImageFix"/>
<feBlend mode="normal" in="SourceGraphic" in2="BackgroundImageFix" result="shape"/>
<feGaussianBlur stdDeviation="5" result="effect1_foregroundBlur_8549_26362"/>
</filter>
<filter id="filter2_f_8549_26362" x="-42.8848" y="-10" width="86.666" height="84" filterUnits="userSpaceOnUse" color-interpolation-filters="sRGB">
<feFlood flood-opacity="0" result="BackgroundImageFix"/>
<feBlend mode="normal" in="SourceGraphic" in2="BackgroundImageFix" result="shape"/>
<feGaussianBlur stdDeviation="5" result="effect1_foregroundBlur_8549_26362"/>
</filter>
<filter id="filter3_f_8549_26362" x="23.7773" y="-10" width="86.666" height="84" filterUnits="userSpaceOnUse" color-interpolation-filters="sRGB">
<feFlood flood-opacity="0" result="BackgroundImageFix"/>
<feBlend mode="normal" in="SourceGraphic" in2="BackgroundImageFix" result="shape"/>
<feGaussianBlur stdDeviation="5" result="effect1_foregroundBlur_8549_26362"/>
</filter>
</defs>
</svg>
